<svg xmlns="http://www.w3.org/2000/svg" width="109" height="63" fill="none"><path fill="#000" d="M76.09 29.812c1.18-.102 3.011.169 3.02 1.672.007 1.712.042 3.405-.01 5.119-.05 1.715-1.486 2.467-3.064 2.424-.805-.022-1.534-.073-2.291-.37-.01-.224-.042-1.253.05-1.394.094.05.177.075.277.108.678.176 1.143.314 1.855.3 1.243-.023 1.579-.46 1.564-1.623-2.014 1.08-4.296.174-4.504-2.186-.094-1.064.007-2.236.715-3.1.666-.814 1.407-.866 2.388-.95m-.188 5.425c.633.024 1.048-.012 1.601-.355a76 76 0 0 1-.004-2.047c.003-1.212.214-1.75-1.238-1.713l-.075.003c-.421.037-.878.117-1.143.484-.742 1.025-.68 3.343.859 3.628m-35.804-7.383c.43-.004.861-.014 1.29.02.187.168 1.095 1.436 1.29 1.702l2.874 3.856c.059-.382.031-1.414.031-1.865l-.002-3.694c.51-.038 1.128-.03 1.638.001v8.45c-.195.01-.426.007-.624.01a16 16 0 0 1-.777-.01c-.687-.811-1.585-2.07-2.253-2.949l-1.29-1.712c-.264-.346-.553-.691-.793-1.052-.054.533-.014 1.181-.024 1.725-.025 1.307.045 2.692-.015 3.993-.537.005-1.066.012-1.602-.007-.057-2.52.016-5.06-.014-7.58-.003-.261-.008-.55.008-.808.09-.09.112-.065.263-.08m28.642 1.911.014-.001c1.95-.108 3.378.666 3.578 2.69.197 1.992-.441 3.802-2.708 4.013-2.213.222-3.587-.9-3.654-3.106-.028-.894.053-1.78.573-2.544.543-.799 1.327-.897 2.197-1.052m.728 5.366c.9-.2 1.239-.838 1.293-1.688.083-1.282-.19-2.477-1.776-2.359-1.278.16-1.388.96-1.405 2.07-.018 1.151.42 2.175 1.8 1.99zM86.323 34a2.8 2.8 0 0 1-.498 1.288 2.76 2.76 0 0 1-1.775 1.134c-.887.163-1.984.099-2.776-.406-1.55-.986-1.604-3.785-.707-5.189.814-1.271 3.436-1.342 4.627-.545.706.472.99 1.13 1.138 1.932-.133.385-.1 1.376-.01 1.785M83.44 35.14c1.416-.261 1.464-1.665 1.3-2.8-.128-.883-.838-1.378-1.718-1.255-.37.044-.78.116-1.01.428-.428.579-.459 1.49-.368 2.174.143 1.077.696 1.591 1.796 1.453m-32.498-5.372q.116-.01.233-.014c2.5-.037 3.068 1.687 3.09 3.796-.46.023-1.053.007-1.521.007q-1.452-.004-2.904.008l.042.2c.094.406.35.892.727 1.091 1.091.576 1.87.16 2.867-.07.127-.05.134-.077.255-.056.028.308.007 1.06-.024 1.364-1.366.425-2.919.722-4.218-.12-1.518-.984-1.622-3.665-.689-5.06.55-.823 1.224-.98 2.142-1.146m-1.103 2.63c.49.037 1.123.021 1.625.02h1.172c-.157-1.015-.458-1.413-1.577-1.412-.855.278-1.011.55-1.22 1.392"/><path fill="#5D5D5D" d="M21.734 25.815c.537-.045 1.215-.03 1.762-.03h5.513c.593 0 1.27-.017 1.852.025l.08.016c-.049.33-4.557 5.278-5.09 6.05-.125.18-.581.61-.753.875.005-.577-.01-1.373.036-1.932-.04-.46.014-1.794.023-2.328-.2-.132-.612-.477-.81-.633q-.812-.635-1.616-1.279c-.272-.22-.716-.608-.997-.764"/><path fill="#383838" d="m30.86 25.813.08.016c-.048.329-4.556 5.278-5.09 6.05-.124.18-.58.61-.752.875.005-.577-.011-1.373.035-1.932.025.2.008.96.013 1.207.376-1.196.44-2.693.732-3.894a45 45 0 0 0 2.266-1.045c.72-.35 2.087-.88 2.716-1.277"/><path fill="#4D4D4D" d="M25.439 32.763c2.053-.08 4.19.028 6.252-.016.774-.016 1.755-.036 2.515.024-.353.568-.923 1.098-1.34 1.622-.62.779-1.303 1.499-1.937 2.262-.346.433-2.246 2.742-2.56 2.915l-.032-.011c.02-.498.011-1.011.022-1.512.02-.867.054-1.747.036-2.613-.34-.354-3.203-2.508-3.221-2.644z"/><path fill="#000" d="M60.153 27.855c.5-.003.984-.01 1.483.018l.001 7.037c1.27.032 2.616 0 3.896.012.004.359.032 1.032-.016 1.355-.078.076-.11.052-.243.058-1.78 0-3.629.023-5.404-.009.04-2.528-.03-5.074 0-7.604.002-.204-.029-.628.015-.808.096-.07.135-.05.268-.06m-4.355.317c.505-.003.995-.01 1.501.014q.015.86.007 1.72l1.51.023q.018.63-.003 1.262c-.44-.018-1.045.005-1.5.01-.013.802-.096 2.97.069 3.673.527.421.856.276 1.434.016q.007.57.007 1.14c-.017.488-.595.459-.997.476-.912.04-1.985-.301-2.123-1.335-.17-1.275-.08-2.673-.09-3.973q-.495-.002-.989-.023l-.017-1.237c.275-.028.721-.02 1.008-.024-.001-.188-.028-1.611.021-1.708z"/><path fill="#5D5D5D" d="m24.788 32.755.182-.002.032.043c-.335.54-1.39 1.694-1.832 2.218l-1.645 1.923c-.23.266-.65.805-.913 1.003.069-.27.074-.803.087-1.1-.013-.706.042-1.414.013-2.117-.314-.169-1.575-1.215-1.904-1.489-.172-.114-.413-.317-.581-.45.745-.064 1.754-.035 2.525-.035z"/><path fill="#383838" d="m24.788 32.755.181-.001.032.043c-.334.54-1.39 1.693-1.832 2.218l-1.644 1.922c-.23.267-.65.805-.914 1.004.07-.27.075-.803.088-1.1.338-.053.373-2.08.632-2.406.35-.157 3.39-1.518 3.485-1.633z"/><path fill="#4D4D4D" d="M18.809 33.234c.838.158 2.045 1.16 2.523 1.2-.26.326-.295 2.353-.633 2.406-.013-.705.042-1.414.014-2.117-.315-.169-1.575-1.215-1.904-1.489"/><path fill="#5D5D5D" d="M31.672 27.328c1.205-.092 2.486-.002 3.698-.032.419-.01.877-.002 1.294.016l.11.008c.03.291-2.894 3.445-3.26 3.939.068-.489.008-1.055.075-1.484q0-.455-.013-.91c-.228-.214-.543-.433-.797-.632a28 28 0 0 1-1.107-.905"/><path fill="#383838" d="m36.664 27.313.108.008c.031.291-2.892 3.445-3.258 3.939.067-.489.007-1.055.074-1.484.004.084.002.161.032.24l.057-.011c.17-.292.209-1.023.315-1.402.312-.117 2.594-1.134 2.688-1.24z"/><path fill="#000" d="M86.332 32.21c.065.544.096 1.245-.01 1.787-.092-.41-.124-1.401.01-1.786"/></svg>