<svg xmlns="http://www.w3.org/2000/svg" width="109" height="63" fill="none"><g fill="#000" clip-path="url(#a)"><path d="M64.818 28.217c5.505-.522 5.443 8.73-.048 8.112-1.005-.113-1.566-.5-2.183-1.278-.052.471-.029 1.364-.027 1.867q.006 1.245-.003 2.49-.849.003-1.698-.007c.032-1.33.016-2.702.015-4.036l.002-7.018c.46-.037 1.213-.013 1.69-.005.012.414.002.843.01 1.26.716-.927 1.09-1.157 2.242-1.385m.322 6.569c1.542-.296 2.24-1.617 1.964-3.109-.237-1.28-1.202-1.964-2.498-1.909-.711.104-1.288.41-1.677 1.038-.66 1.068-.478 2.791.568 3.562a2.3 2.3 0 0 0 1.643.418M27.172 23.494c2.61-.047 5.242.02 7.855-.006a146 146 0 0 1 3.812.01c.021.416.007.962.008 1.387l-.002 2.839c0 .538.056 3.923-.028 4.183l-.056.018c-.542.04-1.382.012-1.94.011l-3.295.008c.016-.294.023-.63.017-.924-.038-1.794.055-3.628-.002-5.417-.745-.033-1.588-.01-2.343-.01l-4.016.004c.001-.692.013-1.415-.01-2.103m-2.049 2.12 2.01-.009c-.033 2.096.01 4.246-.006 6.35 1.487.061 3.06-.036 4.556.005.564.015 1.278.033 1.83 0q-.014 1.862-.008 3.724c0 .233.032 1.451-.032 1.55l-.067.011c-.394.013-.82.014-1.215.006-2.37-.048-4.794.073-7.16-.01.025-.919 0-1.93 0-2.855l.001-5.464v-2.217c0-.2-.006-.873.022-1.053zm29.538 2.603c1.38-.087 2.123.238 3.03 1.245.01-.365.009-.748.013-1.115.403-.042 1.277-.01 1.692-.004.025 1.075.005 2.228.004 3.306l-.007 4.574q-.85.01-1.702-.004c.023-.321.007-.841.005-1.181-.099.091-.192.209-.28.313-.46.509-.951.81-1.637.937-4.626.848-6.003-5.773-2.294-7.74.383-.204.75-.257 1.176-.331m1.08 6.567c1.538-.282 2.229-1.637 1.956-3.084-.248-1.312-1.223-1.969-2.514-1.932a2.34 2.34 0 0 0-1.567.884c-1.248 1.597-.206 4.405 2.125 4.132m-11.855-9.752 2.325-.003c1.515 0 3.094-.088 4.262 1.055 1.24 1.217 1.247 3.478.024 4.711-1.059 1.068-2.376 1.048-3.772 1.045l-1.145.002q-.011 1.49 0 2.979c0 .433-.021.99-.008 1.402-.626.003-1.267.013-1.89-.004.05-1.098.022-2.412.02-3.52l.004-5.342c0-.268-.024-2.192.044-2.303zm1.688 5.162c.577.008 1.154.018 1.731.014.678-.005 1.195-.032 1.743-.482.636-.725.74-1.875-.001-2.528-.754-.665-2.497-.48-3.464-.474-.035 1.137 0 2.327-.01 3.47"/><path d="M73.207 28.215c1.591-.148 3.07.53 3.746 2.027.379.837.406 1.608.366 2.51-1.93.02-4.007.03-5.936.002q.026.191.07.384c.364 1.559 2.276 2.193 3.542 1.283.206-.148.338-.32.49-.522.225-.02.516-.015.748-.018q.514-.002 1.028.01c-.102.335-.278.71-.484.992a3.53 3.53 0 0 1-2.287 1.403c-1.293.204-2.563-.028-3.553-.908-2.281-2.026-1.507-6.22 1.533-7.032.23-.061.5-.094.737-.13m-1.78 3.215q1.093.02 2.188.01c.658-.001 1.334.005 1.99-.009-.16-.648-.291-1.034-.9-1.427-.344-.222-.92-.329-1.328-.265-1.024.094-1.666.737-1.95 1.691m10.853-3.215c.5-.029.78.011 1.273.122-.002.502-.024 1.164.002 1.654l-.278-.047c-1.92-.336-3.074.43-3.057 2.452.01 1.233.022 2.604-.008 3.829l-1.583-.002-.077-.008c-.06-.087-.032-2.514-.032-2.811l.003-5.066c.544.013 1.143-.005 1.699 0 .026.411-.009.894.014 1.34.606-.983.886-1.249 2.044-1.463"/></g><defs><clipPath id="a"><path fill="#fff" d="M24 23h59.965v17H24z"/></clipPath></defs></svg>