<svg xmlns="http://www.w3.org/2000/svg" width="109" height="63" fill="none"><path fill="#000" d="M23.421 23.086c.742.715 9.381 9.224 9.41 9.307-.186.302-6.587 6.56-6.871 6.723-.107-.024-5.272-5.142-5.648-5.572-.257-.183-.97-.899-1.164-1.145.544-.647 1.382-1.403 1.999-2.006.653-.64 1.43-1.467 2.116-2.048.553.488 1.466 1.44 1.977 2.001.017.019.054.088.034.115-.26.367-1.638 1.743-1.935 1.902.395.325 1.106 1.1 1.514 1.487.298.283.897.851 1.151 1.127.186-.288 1.025-1.068 1.305-1.346.407-.403.855-.847 1.267-1.25a95 95 0 0 1-2.941-2.908c-.42-.436-.872-.901-1.255-1.369-1.024-1.248-1.517-3.465-.959-5.018M53.884 27.2l.915.001c.334.688.816 2.122 1.101 2.913.602 1.671 1.249 3.381 1.813 5.061-.407.012-.824.012-1.231.017-.08-.37-.444-1.324-.584-1.8l-1.178.004q-.945-.003-1.892.003c-.18.567-.408 1.245-.622 1.798-.417-.014-.841-.019-1.259-.027.273-.706 2.81-7.9 2.936-7.97m-.688 5.117c.37.01.722.02 1.091.016.367-.002.854.008 1.21-.025-.096-.345-1.047-3.402-1.151-3.475-.361 1.05-.68 2.116-1.038 3.167-.036.106-.067.214-.112.317m13.765-5.125h5.12c.013.338-.007.733-.017 1.076H68.14c.033.699 0 1.603-.007 2.316 1.069.039 2.293.013 3.38.024a14 14 0 0 0-.002 1.082c-.344-.001-3.284-.018-3.362.027l-.003.064c-.015.693.033 1.603-.017 2.269 1.252.004 2.726-.034 3.958.017-.006.311-.031.836-.003 1.13-.598-.032-1.377-.008-1.986-.007l-3.133.003zm-28.238-.029.052-.008c1.053-.145 2.255.185 3.101.83-.24.193-.491.622-.74.905-.789-.532-2.229-1.002-2.993-.235-.21.211-.304.525-.291.818.052 1.178 1.521 1 2.332 1.197.458.106.932.256 1.287.605.409.402.622.967.624 1.552.006 1.778-1.237 2.393-2.821 2.414-1.097.017-2.225-.264-3.039-1.036q.086-.141.19-.272c.096-.123.468-.568.565-.536.395.13.91.49 1.38.592.456.127.872.125 1.338.087.68-.056 1.27-.58 1.174-1.306-.147-1.103-1.588-.953-2.41-1.138-.976-.22-1.731-.811-1.83-1.86-.143-1.48.625-2.425 2.081-2.61m42.9.038a7 7 0 0 1 .985.017c.079.213.221.462.323.672l.704 1.44c.194.392.462 1.034.685 1.381.398-.675.778-1.639 1.169-2.358.174-.32.345-.805.57-1.083.196-.128 1.01-.075 1.285-.072-.106.305-.343.705-.499 1.01q-.567 1.11-1.156 2.208c-.324.537-.78 1.325-.772 1.937.013.947.005 1.894-.008 2.841-.39-.012-.784-.004-1.174 0 .026-.887.026-2.476-.014-3.343-.207-.294-.678-1.236-.865-1.597-.496-.96-1.09-2.026-1.537-3.003.06-.053.215-.045.304-.05m-6.491-.003c.405-.013.817 0 1.223.006-.034 1.57.023 3.194-.001 4.77-.01.65.024 1.443-.022 2.08a392 392 0 0 1 4.058 0c-.003.372-.013.772-.001 1.14-1.698-.059-3.547.015-5.273-.015.032-.613.007-1.515.005-2.149l-.003-3.987c0-.556-.02-1.3.014-1.845m-16.421-.002c1.788.054 3.831-.003 5.648.005-.004.348-.01.685.004 1.033q-1.116.012-2.23.008v4.813c.001.72.004 1.425-.03 2.144-.331-.023-.839-.006-1.183-.005.007-2.249-.047-4.696.014-6.931-.56-.054-1.637-.022-2.232-.024.02-.296.008-.736.01-1.043m-14.37.007c.347.018.852-.02 1.222-.01 1.42.033 2.964-.056 4.37.018l-.007 1.021c-.74.004-1.497.026-2.237.015.072 1.396.012 3.27.008 4.705q.021 1.12-.013 2.237a9 9 0 0 0-1.195.005c.047-2.266-.001-4.665.007-6.948-.674-.034-1.51-.015-2.197-.015-.002-.177-.033-.914.042-1.028m-15.328-4.473a1.881 1.881 0 1 1 .389 3.742 1.881 1.881 0 0 1-.39-3.742"/></svg>