<svg xmlns="http://www.w3.org/2000/svg" width="109" height="63" fill="none"><path fill="#000" d="M23.745 24.43c.226-.012.614-.002.814.108.1.055.255.333.304.443.317.71.633 1.393.977 2.09.34.69.698 1.37 1.047 2.053.049.095.172.617.204.748.205-1.454.281-2.943.469-4.4.038-.292.376-.889.733-.814.285.085.602.376.543.694-.243 1.327-.446 2.808-.751 4.112.198-.207.572-.708.763-.946a38 38 0 0 1 1.566-1.861c.158-.173.452-.519.651-.62.62-.318.893.162 1.143.58-.155.809-.36.848-.784 1.463-.493.715-1.432 1.72-1.722 2.503.515-.086 1.024-.226 1.54-.326.707-.136 1.472-.22 2.164-.396.579.256.855.502.28 1.05l-2.449.533c-.715.153-1.322.264-2.029.46.861.105 2.023.056 2.913.128.38.03.866.003 1.231.113.262.08.77.559.635.868-.104.237-.497.372-.725.467-1.326-.266-2.76-.668-4.093-.954.765.792 1.69 1.505 2.478 2.28.257.253 1.363 1.035.69 1.396-.259.05-.675-.359-.887-.506-.795-.555-1.541-1.39-2.341-1.911.427.712 1.037 1.51 1.504 2.235.573.89.197 1.623-.643 1.21-.087-.043-1.084-1.573-1.177-1.735-.06-.102-.203-.29-.284-.42q-.419-.671-.819-1.354c-.115.969-.17 1.959-.262 2.93-.042.445-.063.963-.138 1.4-.531.464-1.185.362-1.17-.444.008-.392.207-.964.284-1.37.185-.977.357-1.968.554-2.944-.938 1.105-1.674 2.492-2.723 3.523-.186.182-.484.598-.79.52-.152-.04-.283-.097-.363-.232-.01-.405.443-.918.689-1.231.798-1.019 1.585-2.046 2.418-3.037-1.263.742-2.442 1.656-3.709 2.389-.253.146-.799.19-.966-.102-.118-.208-.064-.357-.018-.57.178-.158.454-.338.66-.473 1.13-.746 2.36-1.35 3.512-2.06-1.745-.101-3.59-.059-5.309-.293-.207-.193-.505-.416-.282-.706.226-.13.581-.12.834-.102 1.575.11 3.165.15 4.737.273-.452-.227-4.248-2.752-4.429-3.012-.107-.153-.211-.471-.178-.661a.65.65 0 0 1 .29-.407c.206-.14.448-.13.674-.045.423.16.851.576 1.215.851q.882.675 1.777 1.33c.103.076.366.301.463.32.052-.177-1.867-3.26-2.067-3.713-.315-.713-.16-.852.352-1.426m51.897 1.388c.098-.018.404-.01.52-.01.028.777.005 1.702.005 2.49l-.002 4.66c0 .455-.056 2.53.094 2.853.178.19.736.268 1.016.327q-.004.302-.013.605c-.924.088-1.877.43-2.823.498.028-.463.08-.962.118-1.429-.826 1.307-2.608 1.744-3.983 1.112-3.288-1.482-2.004-7.178 1.55-7.397.96-.06 1.601-.091 2.421.543.013-.932-.01-1.87.01-2.803-2.384-.745.213-1.22 1.086-1.449m-3.054 10.145c.594-.01 1.02-.07 1.537-.417.127-.086.307-.24.426-.311q-.003-1.059.005-2.118c.002-.459.03-.933-.05-1.386-.178-1.014-1.107-1.539-2.086-1.428-1.73.248-2.202 2.042-1.989 3.535.167 1.17.92 2.096 2.157 2.125M42.66 26.029c1.43-.025 2.572.261 3.804.964.013.82.096 1.649.103 2.488l-.712-.012c-.558-2.077-2.348-2.853-4.333-2.402-3.316.753-3.302 5.995-1.418 8.055a3.58 3.58 0 0 0 2.507 1.166c1.046.045 1.882-.14 2.667-.862.489-.49.838-1.173 1.059-1.822.223-.003.454.004.678.007-.02.696-.197 1.953-.283 2.693-.254.094-.514.258-.8.361-1.003.393-1.896.475-2.944.541-3.258.204-6.132-1.78-6.163-5.24-.033-3.536 2.332-5.834 5.835-5.937m12.455 3.466c.682-.026 1.528.014 2.14.342 1.176.629 1.135 1.854 1.132 3.015l-.005 1.684c-.003.953-.075 1.864 1.195 1.456.068.175.109.357.153.54-1.03.997-2.504.976-2.937-.586q-.046.06-.098.117c-1.039 1.1-2.876 1.671-4.093.521-.213-.32-.368-.584-.435-.968-.148-.858.247-1.617 1.04-1.975.318-.143.615-.21.944-.309l1.447-.434c.383-.111.76-.268 1.15-.336-.002-.42.014-.908-.114-1.308-.245-.762-1.088-1.244-1.864-.965a.96.96 0 0 0-.55.502c-.176.379-.098.745.037 1.12a6.4 6.4 0 0 1-1.31.19c-.079-.05-.197-.159-.272-.223-.348-.924.14-1.662.99-2.057.475-.221.936-.264 1.45-.326m-.89 6.31c.926.566 1.759.103 2.52-.474.004-.267.042-1.927-.034-2.031-.762.19-1.562.424-2.286.728-.666.28-.73 1.358-.2 1.777m26.93-6.312c1.897-.08 2.874.856 3.36 2.622-.237.048-.593.183-.84.26l-1.46.445-1.715.525c-.403.12-.85.238-1.237.394.278.703.368 1.14 1.037 1.577 1.437.94 3.144.261 4.038-1.066l.098-.02.372.096c-.394 2.648-3.613 3.69-5.678 2.195-1.691-1.224-1.887-4.005-.652-5.616.738-.961 1.515-1.252 2.677-1.412m-2.034 3.515c.492-.129.814-.25 1.286-.403.703-.17 1.547-.48 2.284-.691-.123-.904-.747-1.527-1.686-1.473-1.446.181-1.94 1.22-1.884 2.567m-17.085-3.55c.091-.01.173-.003.264 0 .05.064.053.14.05.226-.061 1.726-.09 3.481-.031 5.206.022.656.388 1.032 1.035 1.082.89.07 1.478-.244 2.15-.781.017-.58.108-4.11-.115-4.417-.184-.255-.686-.283-.973-.332l.006-.636c.6-.062 1.216-.175 1.816-.251.334-.042.647-.11.984-.106l-.003.2c-.057 1.59-.04 3.18-.038 4.77-.004.442-.03.986.067 1.407.34.201.63.228 1.019.305l-.01.605c-.905.088-1.98.463-2.827.497q.024-.708.095-1.412c-.333.403-.68.746-1.145.995-.702.376-1.597.51-2.37.272-.583-.18-1.002-.56-1.22-1.132-.26-.683-.148-3.256-.148-4.145 0-.299.05-.759-.102-1.027-.146-.258-.74-.283-1.007-.348l.005-.601c.696-.153 1.752-.256 2.498-.378m-12.149-3.645c.115-.013.405-.005.533-.004.036.523-.008 1.43-.01 1.99l-.004 5.152c0 .888-.009 1.775.014 2.662.02.745.455.73 1.063.833l-.004.65c-.998-.029-2.148-.001-3.157-.004l-.633.008c.015-.193.009-.45.01-.648.352-.068.562-.095.887-.263.098-.168.153-.386.159-.578.028-.92.017-1.875.017-2.795v-5.558c-.284-.112-.63-.313-.975-.452.008-.124.003-.256.001-.38.695-.167 1.396-.42 2.1-.613"/></svg>