<svg xmlns="http://www.w3.org/2000/svg" width="109" height="63" fill="none"><path fill="#000" d="M57.424 29.762c1.237-.127 1.974.163 2.663 1.189-.032-.284-.025-.744-.03-1.041.324-.026.725-.006 1.055 0-.043 1.99.034 4.039-.009 6.037-.01.7-.457 2.07-.954 2.56-1.316 1.3-4.93.796-4.829-1.392.14-.086.386-.2.542-.276.058-.035.252-.121.323-.156.12.234.315.795.467.943.705.684 2.101.578 2.767-.106.724-.744.644-1.597.64-2.54-.37.526-.833.979-1.485 1.108-4.088.81-5.15-5.46-1.15-6.326m.831 5.43c.55-.114.878-.226 1.265-.662 1.181-1.33.426-4.024-1.589-3.835-2.741.35-2.498 4.59.324 4.497M24.17 26.034a2.3 2.3 0 0 1 .503 0c1.799.211 2.112 2.645 2.52 4.034.436 1.484.773 3.019 1.517 4.39.156.286.396.529.624.762.248.255.57.546.31.922-.088.127-.315.191-.455.238-1.667-.535-2.337-2.756-3.3-4.026-.349-.461-.66-.644-1.21-.795a4 4 0 0 0-.653.042c-1.185.2-1.814 2.062-2.474 2.98-.438.608-1.07 1.555-1.862 1.765a.63.63 0 0 1-.494-.101c-.636-.48.326-1.024.577-1.38 1.12-1.58 1.466-3.6 2.036-5.416.426-1.359.704-3.118 2.361-3.415m12.71 1.248q.639-.005 1.278.015c.713 1.963 1.544 3.938 2.265 5.904.339.922.773 1.84 1.033 2.787q-.602.006-1.203.001c-.214-.792-.631-1.617-.854-2.393-.398-.027-.963-.008-1.375-.005l-2.462.006c-.291.765-.63 1.635-.904 2.395l-1.215-.003c.093-.25.206-.511.306-.76 1.059-2.633 2.023-5.338 3.132-7.947m-.912 5.327q.772-.017 1.544 0a32 32 0 0 1 1.517-.008c-.57-1.297-.998-2.771-1.527-4.072q-.475 1.266-.969 2.526c-.17.44-.445 1.115-.565 1.554m32.423-2.848c1.117-.083 2.319.072 2.939 1.143.467.809.36 1.96.358 2.874l-.006 2.212c-.347.007-.703.003-1.051.002l.003-.922c-.096.11-.194.216-.288.328-.88 1.041-2.763 1.06-3.664.038-.12-.136-.239-.34-.335-.501-.835-2.135 1.587-3.21 3.324-2.77.378.095.567.14.935.296a4 4 0 0 0-.016-.495c-.138-1.367-1.927-1.601-2.871-.925a2.2 2.2 0 0 0-.453.45 5 5 0 0 1-.828-.549l.011-.018c.493-.747 1.117-.99 1.942-1.163m.853 5.41a1.66 1.66 0 0 0 .806-.482c.272-.284.923-1.177.338-1.445-.518-.237-1.223-.358-1.791-.285-.459.136-.917.253-1.166.718a1 1 0 0 0-.068.782c.254.808 1.19.873 1.881.712M44.899 29.76c1.29-.073 2.319.246 2.64 1.685.13.578.075 1.34.073 1.95l-.007 2.597-1.083.002c-.01-.934.153-3.896-.18-4.58-.15-.308-.387-.563-.718-.674-.462-.155-1.01-.043-1.437.166-.781.497-.961 1.293-.953 2.165.01.973.007 1.948 0 2.922h-1.076l.014-6.078a14 14 0 0 1 1.068-.005l-.013 1.059q.072-.117.146-.233c.399-.623.826-.823 1.526-.977m45.069.152c.361-.022.814-.009 1.183-.007-.219.574-.525 1.195-.776 1.762-.324.733-.643 1.482-.981 2.207-.614 1.52-1.398 2.952-1.86 4.533-.061.339-.398.814-.802.582-.782-.448.606-2.797.825-3.373-.13-.34-.313-.694-.46-1.033l-1.16-2.655c-.297-.662-.626-1.343-.884-2.017.363-.02.829-.002 1.201.004q.102.317.238.62c.57 1.28 1.063 2.607 1.627 3.889.477-1.367 1.277-3.141 1.85-4.512m-12.897 0c.41-.023.81-.01 1.22 0-.117.313-.226.625-.384.92-.094.143-.39.906-.483 1.114a350 350 0 0 0-1.741 4.047l-1.174-.003c-.191-.615-.532-1.32-.773-1.926-.537-1.35-1.224-2.795-1.733-4.146.395-.02.807-.009 1.203-.004q.095.29.216.572c.607 1.409 1.112 2.888 1.727 4.29.474-1.138.89-2.311 1.377-3.446.189-.44.422-.961.545-1.418M49.29 28.14c.33-.008.706.001 1.04.003q.022.879.015 1.758c.497-.012 1.045.001 1.546.002l-.012.949-1.54.011c.026 1.16-.068 2.553.069 3.698.01.094.17.327.232.418q.104.053.213.096c.403.158.752.031 1.118-.128l.01.426-.006.582c-.399.14-.823.193-1.245.156-2.058-.193-1.305-2.898-1.452-4.27-.026-.244 0-.738.024-.987h-1.165v-.94c.335-.023.802-.014 1.146-.016a49 49 0 0 1 .007-1.758m32.81.002c.327-.016.71-.006 1.042-.006.014.576.006 1.179.008 1.757q.786-.002 1.572.016c.01.327.005.614-.004.94a35 35 0 0 0-1.568.024c.003 1.122-.048 2.445.037 3.563.013.159.143.38.23.52.515.29.824.225 1.34.003l.013.423v.578c-1.529.436-2.71-.05-2.678-1.754.006-.323 0-.669 0-.994l.008-2.36-1.102-.001.001-.94c.351-.013.738-.01 1.091-.014zm-17.093 1.622c.42-.03.584-.015.991.093l-.004 1.076c-1.041-.346-2.257.076-2.453 1.164-.205 1.145-.056 2.707-.118 3.897h-1.006c-.055-.088-.033-5.447-.042-6.084.328-.018.706 0 1.038.007.014.364-.001.715-.013 1.08q.08-.138.165-.274c.37-.595.782-.806 1.442-.96m14.016.158c.377-.028.72-.018 1.098-.011-.008 2.01.028 4.081-.016 6.084l-1.086-.005c.059-1.915.005-4.125.004-6.068"/><path fill="#000" d="M52.924 29.914c.363-.018.72-.01 1.084-.007l-.005 6.085c-.336.011-.742 0-1.083-.002zm26.542-2.772a.804.804 0 1 1 .237 1.59.804.804 0 0 1-.237-1.59m-26.102.004a.803.803 0 1 1 .24 1.587.803.803 0 0 1-.24-1.587"/></svg>