<svg xmlns="http://www.w3.org/2000/svg" width="109" height="63" fill="none"><path fill="#000" d="M64.393 27.273c1.32.042 2.692-.031 4.01.022l.006.698c.258-.003.46.005.717.023l.026.62h.636c.047 1.056.013 2.131.028 3.189.007.542.01 1.107-.039 1.646-.201.022-.473.03-.68.042.004.199-.018.43-.032.63-.225.011-.449.01-.673.01q.002.725-.018 1.446l-.698.002c.003.248-.002.505-.003.754l-1.242.003c0 .246-.018.491-.033.737l-.335.017-2.547.002c-.423 0-1.08.022-1.48-.028l-.002-.685c-.235-.01-.485-.012-.721-.017l-.014-.708c-.227-.009-.476-.006-.705-.009q-.019-2.432.006-4.865l.686-.012c.029-.348.016-.913.025-1.283.234.002.486-.006.721-.01-.001-.267-.005-.477.024-.742.24-.034.551-.034.799-.04l.01-.698c.335-.031.893-.019 1.249-.02 0-.188-.033-.498.027-.64.099-.096.088-.069.252-.084m.184 1.291c-.39.041-.746.085-1.139.084l-.022.702-.722-.01c-.004.3.023 1.16-.006 1.386-.227.007-.485.01-.71.028-.047 1.603-.013 3.346-.017 4.96l.733.019c.012.219.025.432.023.652.916 0 1.96-.02 2.862 0 .023-.032.036-.04.04-.076l.006-.584.72-.026.02-.718.68-.01c-.004-.2-.002-.448-.014-.645.235-.02.438-.034.673-.04 0-.445-.007-.906.007-1.35h.724q.02-2.176.001-4.353l-.75-.013c-.001-.182-.008-.394-.004-.573-.993-.005-2.125.03-3.099-.006.001.188.005.386-.006.573M41.29 26.405c.17-.024.698-.026.881-.029 1.712-.024 3.402.304 5.048.75.792.213 1.722.532 2.514.684 1.639-.662 2.309-.522 4.025-.524l4.6-.004c.001.265-.006.445-.03.71-.434-.003-.875.004-1.308.006l-.025.526c-.189.023-.492.026-.69.033-.033.385-.02 1.06-.024 1.462l-.727.039c-.043.336-.032.933-.035 1.302l-.629.034c.002.619.02 1.324-.016 1.935-.24.118-.514.168-.774.216-.022.683.022 1.368-.029 2.054-.22-.01-.483 0-.708.002-.017.237-.01.528-.01.77 1.427.061 2.953-.036 4.381.02v-.66l.696-.035.01-.677c.224-.025.432-.02.657-.018q.014.693-.01 1.388l-.727.012-.007.707c-2.229.028-4.465-.018-6.695.005-.29.003-.59.006-.877-.025.012-.215.017-.441.025-.657.387-.044.787-.04 1.175-.016l.011-.677c.242-.009.504-.005.748-.006.02-.681.008-1.425.009-2.11.231-.014.49-.016.723-.024q.008-.69-.006-1.38.352-.012.703-.038c.002-.352-.054-1.664.073-2 .028-.074.607-.057.756-.057.031-.652.004-1.45.011-2.117-.255-.021-.624-.017-.888-.02-.033.108-.063.21-.15.288-.64.57-3.227.274-4.154.224-.295.365-.688.712-.992 1.083-.81.987-1.753 2.03-2.474 3.079l1.653.003c.329-.386 1.13-1.209 1.69-.895.09.05.097.093.122.183-.356.505-1.034.951-1.496 1.39-.213.203-.516.562-.71.724-.103.012-.125.014-.218-.03-.025-.103.179-.557.229-.68.074-.142.13-.303.188-.454-.548-.01-1.124 0-1.673.001q-.15.177-.302.35c-1.984 2.259-4.99 3.988-8.041 4.136-1.331.054-3.553-.092-3.752-1.804-.183-1.58 2.204-2.276 2.67-.751.206.672-.755 1.132-.708 1.694.05.586 1.151.718 1.619.65 2.913-.17 4.395-2.288 6.105-4.304-.36.024-1.882.092-2.12-.068l.022-.044c.4-.15 1.74-.096 2.233-.09 1.108-1.566 3.256-3.483 4.966-4.352-2.393-.342-4.716-.988-7.153-.958-1.66.02-4.01.505-4.525 2.367-.255.952.135 1.96.965 2.492.16.101.786.386.841.483l-.024.071a.2.2 0 0 1-.053.013c-2.007-.556-3.19-2.781-1.737-4.543 1.042-1.266 2.599-1.658 4.148-1.839m9.894 1.816c.78.049 1.58.096 2.363.047a1.2 1.2 0 0 0 .409-.13l.002-.664c-.647-.012-1.665-.037-2.297.003-.601.054-.51.194-.477.744"/><path fill="#000" d="M72.012 27.301c.665-.038 1.475-.019 2.15-.019q1.719-.005 3.438.01l.003.69.701.014.035.69c.213-.01.464-.004.68-.005.011.16-.009.486-.016.66l-.73-.002-.005 2.132-1.357.008-.022.661-.692.006c-.019.262-.004.495.008.757l.686.01c.022 1.048-.052 2.434.048 3.439.38.055 1.035.033 1.447.032l.021-.65c.22-.02.447-.017.668-.017l.006.65c.478.01.949.013 1.428.03.014.198.008.493.01.698-1.221.05-2.468-.002-3.692.02-.392.006-.835.012-1.224-.02-.161-1.08-.095-3.015-.091-4.191q-.35-.014-.7-.014c-.003-.464-.008-.918.012-1.382.38-.044 1.024-.031 1.428-.032l.012-.671c.224-.012.502-.006.73-.008.046-.745.007-2.006.01-2.79-.704-.052-2.093-.016-2.836-.001-.029.68-.002 1.39-.028 2.087l-.741.004c-.03.351-.018.892-.033 1.27l-.708.038-.01.745c-.237.004-.481-.003-.719-.007-.008.234 0 .486.003.722l.73.004-.003.683-.772.004c-.023.393-.016.91-.021 1.312l-.656.018c-.02.451-.002 1.011.002 1.47.326.048 1 .03 1.372.042.012.21.006.482.007.697-1.157.045-2.33.002-3.488.02a5 5 0 0 1-.665-.029c.006-.22.024-.462.036-.684.32-.004 1.146.064 1.333-.109.123-.193.078-.993.082-1.296l.643-.019c.017-.421.004-.923.003-1.35.18-.026.512-.027.706-.032.017-.687-.003-1.39.012-2.086.202-.027.537-.028.75-.035-.008-.436.001-.897.004-1.335l.77-.01c.03-.597.003-1.518.004-2.13-.24-.012-.531-.008-.775-.012zm-51.233.131 1.579-.004c.94-.002 1.836-.06 2.559.647.959.94.971 2.495.052 3.455-.948.905-2.507.955-3.476.028-.755-.722-.72-1.616-.719-2.59zm7.403.006c.832-.032 1.828-.007 2.672-.006.004.616.056 2.52-.062 3.007a2.4 2.4 0 0 1-.444.894 2.33 2.33 0 0 1-1.566.872c-.691.024-1.162.01-1.762-.399a2.27 2.27 0 0 1-.966-1.461c-.292-1.57.627-2.628 2.128-2.907M23.1 32.531c.194-.017.57.025.761.078 2.575.717 2.32 4.464-.47 4.688l-2.617-.002q.006-.705.002-1.41c-.004-.895-.073-1.703.513-2.448.496-.63 1.05-.808 1.81-.906"/><path fill="#000" d="M28.346 32.532h.025c.634-.007 1.353.217 1.796.676.776.805.7 1.499.697 2.51l-.003 1.577-2.359.004c-2.427.057-3.403-2.92-1.483-4.335.408-.301.831-.375 1.327-.432"/><path fill="#000" fill-opacity=".988" d="M84.875 27.337c.183-.01.395-.003.58-.003.026.449.018.912.017 1.362.199-.01.49.007.696.014-.058 1.056-.004 2.616-.006 3.703v2.417c0 .262-.03 1.464.08 1.545.292.214.822-.39.78.717-.325.041-1.032.03-1.38.028-.468-.002-1.156.02-1.607-.025l.014-.655c.234-.032.499-.036.737-.045.014-.203.008-.48.008-.689l.002-1.406.715-.01c.009-.211.004-.46.004-.674-.242-.007-.474-.003-.716 0-.02-1.408.017-2.828-.011-4.238-.208-.013-.492-.005-.705-.005q-.018.352-.028.706c-.252.01-.43.022-.682-.012.003.23-.004.475-.007.706-.183.012-.435.008-.623.01 0-.417-.037-.644.313-.978.382-.363.525-.412 1.005-.421l.005-.665c.224-.013.496-.01.724-.013.011-.308-.053-1.204.085-1.369"/><path fill="#000" d="M59.26 33.61c.19-.006.399-.003.592-.005.004.416.018.873-.011 1.285-.005.064-.008.052-.061.093l-.612.001c-.008-.295-.037-1.085.013-1.336zm23.216-2.22c.078.004.136-.002.192.052.075.21.018.502-.006.731l-.49.019c-.132.002-.115.023-.204-.05-.06-.199-.028-.486-.023-.706.164-.02.364-.032.53-.045"/><path fill="#000" fill-opacity=".988" d="M80.526 32.915c.178-.015.51-.044.675-.004l.02.034c.006.2-.005.458-.008.663l-.699.004c-.015-.23.001-.467.011-.697"/><path fill="#000" fill-opacity=".98" d="M81.201 32.908c.036-.264-.018-.57.148-.703.152-.061.405-.037.576-.032l-.012.728c-.145-.002-.603-.03-.692.041z"/><path fill="#000" d="M79.215 34.993c.154-.012.41-.007.573-.009.005.18.055.592-.088.697-.193.007-.404.005-.599.006.002-.218-.054-.568.114-.694"/><path fill="#000" fill-opacity=".988" d="M79.832 34.32c.197-.013.48-.005.684-.004.003.215-.007.406-.018.62-.114.015-.54.01-.676.01z"/></svg>